<?xml version="1.0" standalone="no"?>
<!DOCTYPE svg PUBLIC "-//W3C//DTD SVG 20010904//EN"
 "http://www.w3.org/TR/2001/REC-SVG-20010904/DTD/svg10.dtd">
<svg version="1.0" xmlns="http://www.w3.org/2000/svg"
 width="360.000000pt" height="360.000000pt" viewBox="0 0 360.000000 360.000000"
 preserveAspectRatio="xMidYMid meet">

<g transform="translate(0.000000,360.000000) scale(0.100000,-0.100000)"
fill="#000000" stroke="none">
<path d="M731 2445 c-13 -12 -21 -27 -18 -32 3 -4 -1 -19 -9 -33 -7 -14 -13
-21 -14 -17 0 5 5 17 10 28 23 42 -14 12 -40 -33 -9 -16 -7 -17 20 -12 20 4
30 2 30 -5 0 -7 12 -23 26 -36 44 -41 100 -29 108 22 3 19 17 21 51 8 12 -5 0
13 -29 43 -27 28 -54 48 -60 45 -6 -3 -8 -2 -3 2 8 10 -21 45 -37 44 -6 0 -22
-11 -35 -24z"/>
<path d="M467 2367 c-14 -24 -46 -70 -71 -104 -44 -58 -46 -64 -46 -127 0 -64
1 -66 25 -66 13 0 43 7 65 16 23 9 43 14 46 11 7 -6 -60 -105 -105 -157 -28
-32 -31 -41 -31 -102 l0 -68 35 0 c41 0 151 40 215 77 89 53 210 102 210 86 0
-2 -22 -30 -48 -61 -50 -58 -92 -116 -92 -125 0 -3 26 6 58 21 65 31 166 37
196 13 9 -8 19 -11 22 -8 8 7 -82 124 -107 140 -32 20 -21 30 25 24 42 -6 196
-75 196 -87 0 -4 -21 -22 -47 -40 -26 -19 -78 -64 -116 -100 l-70 -65 69 -6
c44 -3 90 -15 128 -32 l60 -28 -52 -45 -52 -46 44 -56 c23 -31 51 -72 60 -89
9 -18 20 -33 24 -33 10 0 51 29 86 61 l29 27 56 -42 c95 -70 96 -70 126 -34
31 37 79 128 71 136 -3 3 -17 0 -31 -6 -18 -9 -25 -19 -25 -41 0 -39 -24 -61
-64 -61 -32 0 -66 25 -66 48 0 7 -8 12 -17 12 -17 1 -17 1 0 11 9 5 17 16 17
23 0 7 9 21 19 30 10 10 21 27 25 39 4 19 3 20 -7 6 -51 -66 -91 -109 -103
-109 -14 0 -136 151 -129 159 3 2 10 -1 17 -6 7 -6 39 -16 70 -23 63 -14 136
-5 216 28 40 16 43 19 38 46 -3 16 -6 47 -6 70 -1 38 -4 43 -57 80 l-56 39
-61 -68 -62 -69 -58 83 c-32 45 -56 84 -53 87 3 3 20 -3 39 -13 50 -27 175
-25 254 5 57 22 62 26 68 60 8 51 7 102 -1 102 -5 0 -17 -7 -27 -15 -11 -8
-23 -15 -27 -15 -7 0 -21 34 -23 57 -1 6 -5 15 -10 20 -5 4 -7 4 -4 -2 4 -6
-12 -10 -38 -11 -42 -1 -44 0 -28 17 9 10 21 16 27 12 6 -3 7 -1 3 5 -12 20
-23 14 -47 -25 -38 -61 -78 -91 -108 -82 -80 25 -152 53 -157 60 -3 5 -20 15
-37 23 -18 7 -52 38 -76 67 -25 30 -58 65 -74 78 l-30 25 -33 -40 c-19 -21
-34 -43 -34 -48 0 -6 14 9 31 32 17 23 33 42 36 42 2 0 24 -20 49 -44 54 -54
58 -77 12 -67 -37 8 -33 8 -106 -3 -28 -4 -62 -16 -74 -26 -22 -17 -24 -17
-95 18 -40 20 -73 39 -73 42 0 8 216 100 236 100 10 0 25 4 32 8 16 11 -117
111 -209 158 l-67 33 -25 -42z m91 -29 c16 -16 15 -77 -2 -106 -28 -51 -97
-71 -126 -37 -19 23 0 87 36 123 33 33 71 41 92 20z m52 -33 c-7 -9 -15 -13
-17 -11 -7 7 7 26 19 26 6 0 6 -6 -2 -15z m-200 -108 c0 -7 -4 -6 -10 3 -8 12
-10 12 -10 1 0 -8 -3 -12 -6 -8 -9 9 6 28 17 22 5 -4 9 -12 9 -18z m115 -27
c-3 -5 -12 -10 -18 -10 -7 0 -6 4 3 10 19 12 23 12 15 0z m-64 -17 c13 -15 12
-15 -8 -4 -24 12 -29 21 -14 21 5 0 15 -7 22 -17z m54 -13 c-3 -5 -11 -10 -16
-10 -6 0 -7 5 -4 10 3 6 11 10 16 10 6 0 7 -4 4 -10z m49 -106 c27 -27 18 -44
-36 -68 -86 -38 -98 -40 -98 -19 0 26 27 61 64 84 38 23 50 24 70 3z m668 -86
c-7 -7 -12 -8 -12 -2 0 14 12 26 19 19 2 -3 -1 -11 -7 -17z m137 -58 c-23 -33
-43 -60 -45 -60 -7 0 10 36 26 55 10 11 23 30 29 43 6 12 16 22 22 22 6 0 -9
-27 -32 -60z m-949 16 c0 -7 16 -27 35 -43 47 -40 45 -53 -2 -17 -80 61 -89
74 -53 74 11 0 20 -6 20 -14z m120 -31 c-13 -14 -33 -25 -44 -24 -16 0 -14 4
12 15 18 8 35 21 39 30 3 8 8 12 11 9 3 -3 -5 -16 -18 -30z m-25 -45 c3 -5 1
-10 -4 -10 -6 0 -11 5 -11 10 0 6 2 10 4 10 3 0 8 -4 11 -10z m577 -67 c29
-31 45 -73 29 -73 -6 0 -31 10 -56 22 -33 16 -45 28 -45 44 0 21 11 31 36 33
5 1 22 -11 36 -26z m268 -33 c26 -26 26 -70 0 -98 -35 -37 -100 -25 -100 19 0
11 15 20 48 29 26 7 42 14 35 17 -6 2 -28 0 -47 -5 -34 -10 -34 -9 -24 13 9
20 39 42 61 44 4 1 16 -8 27 -19z m-200 -333 c0 -43 -69 -32 -99 17 -32 52
-26 56 39 28 41 -18 60 -32 60 -45z"/>
<path d="M293 2351 l-23 -19 0 -589 1 -588 24 -18 25 -18 0 626 c0 344 -1 625
-2 625 -2 -1 -13 -9 -25 -19z"/>
<path d="M930 2329 c-109 -79 -133 -101 -119 -110 8 -5 23 -9 35 -9 11 0 58
-18 105 -41 46 -22 107 -50 134 -60 54 -21 195 -38 195 -23 -1 5 -16 21 -35
35 -67 51 -114 99 -170 173 -33 43 -65 76 -74 75 -9 0 -41 -19 -71 -40z m127
-48 c19 -24 32 -46 29 -48 -3 -3 -26 5 -51 18 -48 24 -71 51 -60 70 13 21 50
3 82 -40z"/>
<path d="M1225 2330 c-4 -11 -22 -41 -41 -65 -19 -25 -34 -47 -34 -50 0 -3 11
-5 24 -5 19 0 26 7 31 30 14 62 87 77 121 25 16 -24 18 -25 35 -9 30 27 23 0
-21 -87 -22 -44 -36 -79 -30 -79 15 0 120 41 120 47 0 3 -9 36 -20 72 l-19 66
-73 35 c-39 19 -75 36 -79 38 -4 2 -10 -6 -14 -18z"/>
<path d="M2258 2292 l-98 -3 -1 -67 c0 -37 -1 -94 -1 -127 l-1 -60 32 -3 c31
-3 31 -3 31 42 l0 46 50 0 c49 0 50 1 50 30 0 29 -1 30 -50 30 -49 0 -50 1
-50 30 0 30 0 30 58 30 54 0 60 2 71 26 6 15 10 27 9 28 -2 0 -47 0 -100 -2z"/>
<path d="M2396 2178 c-32 -68 -61 -129 -63 -135 -3 -9 5 -13 25 -13 17 0 32 6
36 15 4 11 21 15 61 15 42 0 55 -3 55 -15 0 -10 11 -15 35 -15 l34 0 -18 43
c-11 23 -39 84 -63 135 l-44 93 -58 -123z m71 -38 c11 -28 10 -30 -13 -30 -26
0 -27 3 -18 38 8 30 17 28 31 -8z"/>
<path d="M1650 2194 c0 -52 5 -104 10 -115 23 -41 105 -62 163 -40 39 15 57
68 57 165 l0 86 -35 0 -35 0 0 -93 c0 -98 -7 -117 -46 -117 -37 0 -47 25 -48
120 l0 90 -33 0 -33 0 0 -96z"/>
<path d="M1928 2160 l-3 -130 98 0 98 0 -3 28 c-3 26 -6 27 -65 30 -59 3 -63
4 -63 27 0 23 4 25 50 25 47 0 50 2 50 25 0 23 -3 25 -50 25 -47 0 -50 2 -50
25 0 24 3 25 60 25 57 0 60 1 60 25 0 25 -1 25 -89 25 l-90 0 -3 -130z"/>
<path d="M1295 2220 c-11 -5 -35 -9 -52 -9 -18 -1 -33 -6 -33 -12 0 -17 40
-49 61 -49 23 0 59 38 59 62 0 20 -5 21 -35 8z"/>
<path d="M696 2093 c-6 -14 -5 -15 5 -6 7 7 10 15 7 18 -3 3 -9 -2 -12 -12z"/>
<path d="M1031 2087 c-8 -10 -7 -14 2 -14 8 0 14 6 14 14 0 7 -1 13 -2 13 -2
0 -8 -6 -14 -13z"/>
<path d="M1060 2072 c0 -4 10 -13 23 -21 22 -14 22 -14 3 8 -20 22 -26 25 -26
13z"/>
<path d="M1120 2000 c6 -11 13 -20 16 -20 2 0 0 9 -6 20 -6 11 -13 20 -16 20
-2 0 0 -9 6 -20z"/>
<path d="M1640 1836 l0 -136 30 0 30 0 0 65 c0 40 4 65 11 65 6 0 39 -24 72
-53 108 -92 97 -99 97 57 l0 136 -30 0 -30 0 0 -65 c0 -36 -4 -65 -8 -65 -5 0
-32 20 -60 44 -29 25 -66 54 -82 66 l-30 21 0 -135z"/>
<path d="M1986 1848 c-32 -68 -60 -129 -63 -135 -7 -18 54 -17 64 1 12 22 102
25 114 3 7 -11 22 -17 44 -17 l34 0 -61 128 c-34 70 -64 131 -68 135 -4 4 -33
-48 -64 -115z m74 -34 c13 -34 13 -34 -15 -34 -27 0 -28 3 -19 38 8 29 22 28
34 -4z"/>
<path d="M2130 1962 c0 -4 7 -18 16 -30 12 -18 24 -23 48 -20 l31 3 3 -107 3
-108 34 0 35 0 0 108 0 107 33 0 c28 0 32 4 35 28 l3 27 -120 0 c-67 0 -121
-3 -121 -8z"/>
<path d="M2410 1835 l0 -135 35 0 35 0 0 135 0 135 -35 0 -35 0 0 -135z"/>
<path d="M2578 1945 c-59 -40 -74 -110 -37 -175 40 -71 149 -94 209 -44 78 66
80 158 3 217 -49 37 -122 38 -175 2z m145 -57 c44 -51 6 -128 -63 -128 -45 0
-70 26 -70 73 0 78 83 112 133 55z"/>
<path d="M2850 1836 l0 -136 30 0 30 0 0 65 c0 41 4 65 11 65 6 0 39 -23 73
-52 33 -29 69 -58 79 -67 16 -13 17 -6 17 122 l0 137 -30 0 -30 0 0 -65 c0
-36 -4 -65 -9 -65 -6 0 -38 24 -73 53 -35 29 -71 58 -80 66 -17 13 -18 5 -18
-123z"/>
<path d="M3165 1945 c-48 -47 -23 -105 56 -134 46 -17 56 -37 26 -55 -13 -8
-24 -7 -49 7 -29 17 -32 17 -49 1 -27 -24 -24 -33 16 -50 86 -36 165 -4 165
66 0 43 -29 74 -80 85 -65 14 -63 61 2 51 29 -5 43 -2 55 9 17 18 17 18 -14
34 -39 20 -101 14 -128 -14z"/>
<path d="M477 1752 c-15 -20 -47 -57 -72 -82 l-45 -44 0 -80 0 -79 59 6 c68 7
132 31 216 80 33 19 84 45 113 58 28 13 52 26 52 30 0 7 -273 149 -287 149 -6
0 -22 -17 -36 -38z m93 -123 c-25 -60 -85 -86 -122 -52 -28 26 -23 50 14 58
17 4 50 15 72 25 46 19 54 13 36 -31z m190 21 c8 -5 11 -10 5 -10 -5 0 -17 5
-25 10 -8 5 -10 10 -5 10 6 0 17 -5 25 -10z m-60 -30 c-20 -13 -33 -13 -25 0
3 6 14 10 23 10 15 0 15 -2 2 -10z m-45 -41 c-4 -5 -12 -9 -18 -8 -9 0 -8 2 1
6 6 2 9 10 6 15 -4 7 -2 8 5 4 6 -4 9 -12 6 -17z"/>
<path d="M1640 1515 l0 -135 88 0 c49 0 91 2 94 5 3 3 3 15 1 28 -4 20 -9 22
-59 19 l-54 -4 0 111 0 111 -35 0 -35 0 0 -135z"/>
<path d="M1867 1643 c-4 -3 -7 -64 -7 -135 l0 -128 100 0 c99 0 100 0 100 25
0 23 -4 24 -62 27 -60 3 -63 4 -66 31 -3 26 -2 27 47 27 48 0 51 2 51 25 0 23
-3 25 -50 25 -47 0 -50 2 -50 25 0 24 3 25 60 25 l60 0 0 30 0 30 -88 0 c-49
0 -92 -3 -95 -7z"/>
<path d="M2155 1524 c-33 -69 -61 -129 -63 -135 -6 -16 58 -10 64 6 5 11 21
15 60 15 41 0 54 -4 54 -15 0 -10 11 -15 35 -15 19 0 35 2 35 4 0 5 -117 256
-122 261 -2 2 -30 -53 -63 -121z m85 -56 c0 -5 -14 -8 -30 -8 l-31 0 17 32 16
32 14 -25 c7 -13 13 -27 14 -31z"/>
<path d="M2412 1630 c-93 -57 -93 -187 1 -237 41 -22 128 -21 162 1 22 14 25
23 25 74 l0 57 -55 2 -55 3 0 -31 c0 -28 3 -31 24 -25 29 7 38 -1 25 -25 -15
-29 -74 -25 -104 6 -68 67 14 173 95 123 16 -11 22 -9 34 7 22 29 20 34 -19
51 -48 19 -94 18 -133 -6z"/>
<path d="M2640 1558 c0 -117 17 -157 75 -177 31 -10 49 -11 81 -2 63 17 77 46
82 169 l4 102 -36 0 -36 0 0 -94 c0 -100 -10 -126 -50 -126 -40 0 -50 26 -50
126 l0 94 -35 0 -35 0 0 -92z"/>
<path d="M2930 1515 l0 -135 95 0 c94 0 95 0 95 25 0 23 -4 24 -62 27 -60 3
-63 4 -63 28 0 23 4 25 48 28 42 3 47 5 47 28 0 22 -4 24 -50 24 -47 0 -50 2
-50 25 0 24 3 25 59 25 58 0 59 1 63 30 l5 30 -94 0 -93 0 0 -135z"/>
<path d="M3190 1621 c0 -25 6 -27 13 -6 4 8 2 17 -3 20 -6 4 -10 -3 -10 -14z"/>
<path d="M777 1580 c-21 -27 -53 -79 -72 -114 l-36 -64 88 -36 c86 -37 88 -37
103 -18 8 11 37 48 65 83 l49 62 -73 69 c-40 37 -76 68 -80 68 -4 0 -24 -22
-44 -50z m105 -37 c21 -19 24 -79 5 -104 -7 -8 -24 -24 -39 -33 -57 -37 -121
13 -99 76 25 71 89 101 133 61z"/>
<path d="M1350 1515 c0 -7 61 -47 66 -42 3 2 -11 14 -31 25 -19 12 -35 20 -35
17z"/>
<path d="M437 1396 l-77 -81 37 -34 c63 -55 120 -101 126 -101 18 0 137 190
137 217 0 5 -33 25 -73 45 l-73 36 -77 -82z m109 45 c-3 -5 5 -12 19 -15 37
-9 48 -38 32 -86 -7 -22 -23 -51 -35 -65 -29 -33 -83 -34 -112 -3 -29 32 -25
48 13 49 40 1 130 32 135 47 6 20 -37 52 -71 52 -36 0 -82 -36 -97 -76 -5 -13
-14 -24 -20 -24 -15 0 0 26 42 73 18 20 41 37 50 37 9 0 20 5 23 10 3 6 11 10
16 10 6 0 8 -4 5 -9z"/>
</g>
</svg>
